<?xml version="1.0" standalone="no"?><!DOCTYPE svg PUBLIC "-//W3C//DTD SVG 1.1//EN" "http://www.w3.org/Graphics/SVG/1.1/DTD/svg11.dtd"><svg t="1632237730076" class="icon" viewBox="0 0 1024 1024" version="1.1" xmlns="http://www.w3.org/2000/svg" p-id="2438" width="48" height="48" xmlns:xlink="http://www.w3.org/1999/xlink"><defs><style type="text/css"></style></defs><path d="M390.3488 317.2352a73.13408 73.13408 0 1 0-146.26816 0 73.13408 73.13408 0 0 0 146.28864 0z m243.36384 373.76h60.47744v-60.416c0-44.6464 26.78784-82.88256 64.88064-100.22912l-10.09664-34.65216v-2.41664h0.08192l-66.19136-199.9872L451.7888 591.36l-61.89056-104.87808-245.76 247.95136h402.51392a109.71136 109.71136 0 0 1 87.04-43.37664v-0.08192zM1024 163.84a164.352 164.352 0 0 0-163.84-163.84H163.84a164.352 164.352 0 0 0-163.84 163.84v696.32a164.352 164.352 0 0 0 163.84 163.84h491.7248a30.72 30.72 0 0 0 0-61.44H163.84c-56.46336 0-102.4-45.93664-102.4-102.4V163.84c0-56.46336 45.93664-102.4 102.4-102.4h696.32c56.46336 0 102.4 45.93664 102.4 102.4v488.59136c0 0.28672-0.2048 0.59392-0.2048 0.96256a30.72 30.72 0 1 0 61.44 0v-0.36864H1024V163.84z m-31.88736 606.72h-156.61056v-156.52864a30.72 30.72 0 1 0-61.44 0v156.52864H617.472a30.72 30.72 0 0 0 0 61.44h156.52864v156.59008a30.72 30.72 0 0 0 61.44 0V832.1024h156.672a30.72 30.72 0 1 0 0-61.44v-0.08192z" p-id="2439" fill="#515151"></path></svg>