<?xml version="1.0" encoding="utf-8"?>
<!-- Generator: Adobe Illustrator 25.3.0, SVG Export Plug-In . SVG Version: 6.00 Build 0)  -->
<svg version="1.1" id="Layer_1" xmlns="http://www.w3.org/2000/svg" xmlns:xlink="http://www.w3.org/1999/xlink" x="0px" y="0px"
	 viewBox="0 0 541 76" style="enable-background:new 0 0 541 76;" xml:space="preserve">
<style type="text/css">
	.st0{fill:#211E1F;}
	.st1{fill:#19A6AD;}
</style>
<g>
	<path class="st0" d="M123.6,23.2v15.9h15.3V23.2h6.1v37.4h-6.1v-16h-15.3v16h-6.2V23.2H123.6z"/>
	<path class="st0" d="M161.9,33.5c7.5,0,12.7,5.2,12.7,13.1V49h-19.9c0.3,4.3,3.2,7.3,7.4,7.3c4,0,6.1-2.2,7.2-4.4l4.9,2.7
		c-1.8,3-4.9,6.7-11.9,6.7c-8,0-13.6-6-13.6-14.2C148.7,39.3,154.2,33.5,161.9,33.5z M168.7,45c-0.4-4.1-2.9-6.5-6.8-6.5
		c-4.2,0-6.7,2.6-7.1,6.5H168.7z"/>
	<path class="st0" d="M184.2,60.6h-5.8V23.2h5.8V60.6z"/>
	<path class="st0" d="M195.2,60.6h-5.8V23.2h5.8V60.6z"/>
	<path class="st0" d="M212.7,33.5c7.8,0,13.7,5.7,13.7,13.9c0,8.3-5.9,13.9-13.7,13.9c-7.9,0-13.7-5.7-13.7-13.9
		C199,39.2,204.8,33.5,212.7,33.5z M212.7,56.1c4.7,0,7.8-3.5,7.8-8.7s-3.1-8.7-7.8-8.7c-4.8,0-7.9,3.5-7.9,8.7
		C204.8,52.6,207.9,56.1,212.7,56.1z"/>
	<g>
		<path class="st0" d="M251.4,23.2l10.5,31.5h0.6V23.2h6.1v37.4h-10.9l-10.4-31.5h-0.6v31.5h-6.2V23.2H251.4z"/>
		<path class="st0" d="M285.5,33.5c7.5,0,12.7,5.2,12.7,13.1V49h-19.9c0.3,4.3,3.2,7.3,7.4,7.3c4,0,6.1-2.2,7.2-4.4l4.9,2.7
			c-1.8,3-4.9,6.7-11.9,6.7c-8,0-13.6-6-13.6-14.2C272.3,39.3,277.8,33.5,285.5,33.5z M292.3,45c-0.4-4.1-2.9-6.5-6.8-6.5
			c-4.2,0-6.7,2.6-7.1,6.5H292.3z"/>
		<path class="st0" d="M308,60.6h-5.8V34.3h5.8V60.6z"/>
		<path class="st0" d="M339.5,34.3v25.4c0,7.3-5.1,12.4-13.4,12.4c-7.2,0-11.2-3.3-13.8-7.4l5-3c1.4,2.8,4.2,5.4,8.4,5.4
			c4.5,0,7.9-2.5,7.9-7.6v-3.5H333c-1.4,2.4-3.9,4.8-8.9,4.8c-6.7,0-12.2-5.6-12.2-13.6s5.5-13.5,12.2-13.5c5,0,7.4,2.4,8.9,4.7h0.7
			v-4H339.5z M333.6,47c0-5.2-3.4-8.3-8-8.3c-4.5,0-7.9,3-7.9,8.3c0,5.3,3.4,8.3,7.9,8.3C330.3,55.4,333.6,52.3,333.6,47z"/>
		<path class="st0" d="M350.5,23.2v15.4h0.6c1.2-2.5,3.7-4.9,8.7-4.9c5.8,0,10.3,4.1,10.3,11v15.8h-5.8V45.3c0-4.1-2.4-6.4-6.5-6.4
			c-4.6,0-7.3,2.8-7.3,8.1v13.5h-5.8V23.2H350.5z"/>
		<path class="st0" d="M380.9,23.2v15h0.6c1.4-2.4,3.9-4.7,8.9-4.7c6.7,0,12.2,5.8,12.2,13.9c0,8.2-5.5,13.9-12.2,13.9
			c-5,0-7.4-2.4-8.9-4.8h-0.7v4h-5.7V23.2H380.9z M380.9,47.4c0,5.4,3.4,8.7,8,8.7c4.5,0,7.9-3.2,7.9-8.7c0-5.5-3.4-8.7-7.9-8.7
			C384.3,38.7,380.9,42,380.9,47.4z"/>
		<path class="st0" d="M418.6,33.5c7.8,0,13.7,5.7,13.7,13.9c0,8.3-5.9,13.9-13.7,13.9c-7.9,0-13.7-5.7-13.7-13.9
			C404.9,39.2,410.8,33.5,418.6,33.5z M418.6,56.1c4.7,0,7.8-3.5,7.8-8.7s-3.1-8.7-7.8-8.7c-4.8,0-7.9,3.5-7.9,8.7
			C410.8,52.6,413.9,56.1,418.6,56.1z"/>
		<path class="st0" d="M455.4,60.6v-4.4h-0.7c-1.2,2.6-3.7,4.9-8.7,4.9c-5.8,0-10.3-4-10.3-11V34.3h5.8v15.2c0,4.2,2.4,6.4,6.5,6.4
			c4.6,0,7.3-2.9,7.3-8.1V34.3h5.8v26.3H455.4z"/>
		<path class="st0" d="M472.1,37.9h0.7c1.1-2.8,3.2-3.8,6.6-3.8h2.8v5.1h-4.1c-3.5,0-6,1.9-6,5.9v15.4h-5.8V34.3h5.7V37.9z"/>
		<rect x="302.4" y="23.2" class="st0" width="5.4" height="5.8"/>
	</g>
	<g>
		<path class="st1" d="M77,53.4c-4.4,0-8.4-2.4-10.5-6.2l-0.1-0.2l4.6-2.5l0.1,0.2c1.2,2.2,3.4,3.5,5.9,3.5c0,0,0.1,0,0.1,0
			c2.5,0,4.7-1.4,5.9-3.7l4.6,2.3c-2,4-6,6.5-10.4,6.5C77.1,53.4,77,53.4,77,53.4z"/>
		<path class="st1" d="M101.6,60.6h-7.9V26.4c0-0.4-0.2-0.7-0.5-0.9L77.7,13.8c-0.4-0.3-1-0.3-1.4,0L60.7,25.5
			c-0.3,0.2-0.5,0.6-0.5,0.9v34.1h-7.9V26.4c0-2.8,1.4-5.5,3.6-7.2L71.5,7.5c3.2-2.4,7.7-2.4,10.9,0L98,19.2
			c2.3,1.7,3.6,4.4,3.6,7.2V60.6z"/>
	</g>
</g>
</svg>
