<?xml version="1.0" standalone="no"?><!DOCTYPE svg PUBLIC "-//W3C//DTD SVG 1.1//EN" "http://www.w3.org/Graphics/SVG/1.1/DTD/svg11.dtd"><svg t="1632338218048" class="icon" viewBox="0 0 1024 1024" version="1.1" xmlns="http://www.w3.org/2000/svg" p-id="5264" width="48" height="48" xmlns:xlink="http://www.w3.org/1999/xlink"><defs><style type="text/css"></style></defs><path d="M928 960h-832A96 96 0 0 1 0 864v-704A96 96 0 0 1 96 64h832A96 96 0 0 1 1024 160v704a96 96 0 0 1-96 96zM96 128a32 32 0 0 0-32 32v704a32 32 0 0 0 32 32h832a32 32 0 0 0 32-32v-704a32 32 0 0 0-32-32z" p-id="5265" fill="#515151"></path><path d="M352 576A160 160 0 1 1 512 416 160 160 0 0 1 352 576z m0-256A96 96 0 1 0 448 416 96 96 0 0 0 352 320z" p-id="5266" fill="#515151"></path><path d="M544 768a32 32 0 0 1-32-32 160 160 0 0 0-320 0 32 32 0 0 1-64 0 224 224 0 0 1 448 0 32 32 0 0 1-32 32zM864 384h-256a32 32 0 0 1 0-64h256a32 32 0 0 1 0 64zM864 640h-192a32 32 0 0 1 0-64h192a32 32 0 0 1 0 64zM864 512h-192a32 32 0 0 1 0-64h192a32 32 0 0 1 0 64z" p-id="5267" fill="#515151"></path></svg>