<?xml version="1.0" standalone="no"?><!DOCTYPE svg PUBLIC "-//W3C//DTD SVG 1.1//EN" "http://www.w3.org/Graphics/SVG/1.1/DTD/svg11.dtd"><svg t="1632453353748" class="icon" viewBox="0 0 1024 1024" version="1.1" xmlns="http://www.w3.org/2000/svg" p-id="10932" width="32" height="32" xmlns:xlink="http://www.w3.org/1999/xlink"><defs><style type="text/css"></style></defs><path d="M1024 752.96A263.808 263.808 0 0 1 768 1024a251.84 251.84 0 0 1-219.52-133.952 372.608 372.608 0 0 1-93.44 13.248 441.6 441.6 0 0 1-158.08-35.328A447.232 447.232 0 1 1 896 448a477.632 477.632 0 0 1-5.76 68.16 272.512 272.512 0 0 1 133.76 236.8zM448 64a382.464 382.464 0 0 0-250.88 672.512 308.864 308.864 0 0 1 224-138.304 193.856 193.856 0 0 1-138.24-183.936 171.84 171.84 0 1 1 343.68 0 193.856 193.856 0 0 1-137.6 183.936 305.344 305.344 0 0 1 61.44 13.76A252.416 252.416 0 0 1 768 481.856a241.856 241.856 0 0 1 59.52 8.128c1.28-14.016 4.48-27.584 4.48-41.984a384 384 0 0 0-384-384z m432 658.816h-224a30.144 30.144 0 0 0 0 60.224h224a30.144 30.144 0 0 0 0-60.224z" fill="#ffc409" p-id="10933"></path></svg>