<?xml version="1.0" standalone="no"?><!DOCTYPE svg PUBLIC "-//W3C//DTD SVG 1.1//EN" "http://www.w3.org/Graphics/SVG/1.1/DTD/svg11.dtd"><svg t="1632335758701" class="icon" viewBox="0 0 1024 1024" version="1.1" xmlns="http://www.w3.org/2000/svg" p-id="4139" width="64" height="64" xmlns:xlink="http://www.w3.org/1999/xlink"><defs><style type="text/css"></style></defs><path d="M950.4 905.6l-832-832c-12.8-12.8-32-12.8-44.8 0-12.8 12.8-12.8 32 0 44.8l35.2 35.2C60.8 179.2 32 230.4 32 288v448c0 89.6 70.4 160 160 160h659.2l54.4 54.4c12.8 12.8 32 12.8 44.8 0s12.8-32 0-44.8zM96 288c0-38.4 25.6-73.6 57.6-89.6l432 432c-3.2 0-9.6-3.2-12.8-3.2l-233.6-131.2c-28.8-16-67.2-16-96 0L96 582.4V288z m96 544c-54.4 0-96-41.6-96-96v-80l182.4-105.6c9.6-6.4 22.4-6.4 32 0l233.6 131.2c28.8 16 64 16 92.8 0h3.2l147.2 147.2H192z" p-id="4140" fill="#515151"></path><path d="M928 768c0 19.2 12.8 32 32 32s32-12.8 32-32v-118.4V288c0-89.6-70.4-160-160-160H320c-19.2 0-32 12.8-32 32s12.8 32 32 32h512c54.4 0 96 41.6 96 96v304l-83.2-44.8c-28.8-16-64-16-92.8 0l-22.4 12.8c-16 9.6-22.4 28.8-12.8 44.8 9.6 16 28.8 22.4 44.8 12.8l22.4-12.8c9.6-6.4 22.4-6.4 32 0l112 60.8V768z" p-id="4141" fill="#515151"></path></svg>