<?xml version="1.0" standalone="no"?><!DOCTYPE svg PUBLIC "-//W3C//DTD SVG 1.1//EN" "http://www.w3.org/Graphics/SVG/1.1/DTD/svg11.dtd"><svg t="1632252545307" class="icon" viewBox="0 0 2844 1024" version="1.1" xmlns="http://www.w3.org/2000/svg" p-id="4977" width="711" height="256" xmlns:xlink="http://www.w3.org/1999/xlink"><defs><style type="text/css"></style></defs><path d="M1420.743111 782.942815c784.658963 0 1420.743111 17.806222 1420.743111 39.774815S2205.402074 862.492444 1420.743111 862.492444C636.09363 862.492444 0 844.686222 0 822.71763S636.09363 782.942815 1420.743111 782.942815" fill="#4A4D59" p-id="4978"></path><path d="M1538.654815 388.114963v-47.122963h-232.865185v474.083556h232.874666v-47.122963h-186.311111V388.124444z" fill="#73D0F3" p-id="4979"></path><path d="M1701.669926 767.962074h139.728593V388.114963h-139.728593v379.847111z m-46.573037 47.113482h232.884148v-474.074075H1655.087407v474.074075zM1003.045926 768.502519v-419.176297h-46.582519v465.749334h232.884149v-46.573037z" fill="#FF8263" p-id="4980"></path><path d="M848.346074 388.114963v-47.122963H615.461926v474.083556h232.884148v-47.122963h-186.311111V600.13037h186.311111v-47.113481h-186.311111V388.114963z" fill="#73D0F3" p-id="4981"></path><path d="M2678.101333 388.114963v-47.122963h-232.874666v474.083556H2678.110815v-47.122963h-186.311111V600.13037h186.311111v-47.113481h-186.311111V388.114963z" fill="#FF8263" p-id="4982"></path><path d="M452.589037 350.767407v383.744L330.154667 612.086519l-0.274963 0.284444-0.256-0.256-125.155556 125.155556V349.307259h-46.440296v464.308148h46.430815v-10.704592l125.44-125.430519 122.69037 122.690371v14.885926h46.440296V350.776889zM2290.669037 350.767407v10.695112l-125.44 125.44-122.69037-122.690371v-14.885926h-46.440297v464.298667h46.440297V429.880889l122.43437 122.424889 0.284444-0.284445 0.246519 0.256 125.165037-125.155555v387.953778h46.430815v-464.308149z" fill="#73D0F3" p-id="4983"></path><path d="M1068.752593 0a29.108148 29.108148 0 1 1-0.009482 58.216296 29.108148 29.108148 0 0 1 0-58.216296M927.355259 956.463407a29.108148 29.108148 0 1 1 0 58.216297 29.108148 29.108148 0 0 1 0-58.216297M1650.944 83.171556a29.108148 29.108148 0 1 1 0 58.216296 29.108148 29.108148 0 0 1 0-58.216296M2499.280593 931.51763a29.108148 29.108148 0 1 1 0 58.216296 29.108148 29.108148 0 0 1 0-58.216296M2524.235852 174.65837a29.108148 29.108148 0 1 1 0 58.216297 29.108148 29.108148 0 0 1 0-58.216297M2166.603852 698.633481a29.108148 29.108148 0 1 1 0 58.216297 29.108148 29.108148 0 0 1 0-58.216297" fill="#FF8263" p-id="4984"></path></svg>